<svg height="50" width="50" xmlns="http://www.w3.org/2000/svg" viewBox="0 0 201.833 201.833"><path d="M178.512 94.637c-.701-3.736-4.465-7.239-10.582-12.564-2.476-2.155-6.218-5.414-6.802-6.664l-.028-.061c.103-.487 1.045-1.752 1.673-2.596 1.592-2.138 3.773-5.065 4.638-9.217.974-4.673-1.143-10.976-3.482-16.079l.911.249a4.006 4.006 0 004.514-1.855c.811-1.4 4.185-9.041-9.059-21.946C149.763 13.643 131.027 0 90.097 0 71.015 0 53.345 7.244 40.34 20.397 29.282 31.582 23.028 45.823 23.183 59.47c.236 20.765 15.604 44.556 23.861 57.337 2.072 3.208 4.42 6.844 4.746 7.799.445 1.604-2.407 6.407-5.865 9.883a3.999 3.999 0 001.478 6.594c.144.052 14.483 5.355 23.249 22.612 9.729 19.154 25.438 36.148 26.102 36.862a3.998 3.998 0 006.889-2.159c.025-.175.62-4.362 1.249-10.972.315-3.307 1.675-5.314 3.398-7.856 1.005-1.484 2.145-3.166 3.102-5.199 1.176-2.499 1.846-5.53 2.555-8.739.791-3.578 1.686-7.628 3.188-9.573.31-.226 2.308-1.374 10.873-1.374 4.959 0 10.466.367 15.325.692 1.786.119 3.463.23 4.962.314 5.466.304 8.513-1.866 10.091-3.675 4.263-4.884 3.191-12.739 2.482-17.938-.307-2.252.479-2.896 2.799-4.427.997-.657 2.028-1.338 2.866-2.314 2.125-2.479 1.831-5.315-.869-8.444 1.082-.849 2.066-1.704 2.525-3.081.359-1.078.275-2.088.136-3.76-.134-1.605-.354-4.24.091-5.885.491-.441 1.911-1.161 2.785-1.604 3.133-1.587 8.376-4.245 7.311-9.926zM94.471 81.099c-11.543 0-20.528-1.149-20.617-1.161a3.992 3.992 0 00-3.898 1.832 4 4 0 00.022 4.306c.105.164 10.543 16.631 7.802 39.686-1.249 10.506-4.984 18.202-7.589 22.471l-1.667-1.931c2.415-5.073 6.385-16.86 2.195-33.899C67.97 101.22 61.253 93.6 55.327 86.878c-5.686-6.45-10.596-12.021-12.076-19.843-3.14-16.597 9.248-33.587 22.525-39.811 4.752-2.228 15.952-4.625 29.313-4.625 14.101 0 47.246 2.98 50.456 30.592.726 6.247-.683 11.263-4.309 15.334-7.22 8.108-23.828 12.574-46.765 12.574z"/></svg>