<svg xmlns="http://www.w3.org/2000/svg" width="16" height="16"><path fill-rule="evenodd" fill="#FE3E57" d="M14.125 15.999H1.875A1.877 1.877 0 010 14.124v-11c0-1.033.841-1.875 1.875-1.875h.75v-1.25h1.25v1.25h8.25v-1.25h1.25v1.25h.75c1.034 0 1.875.842 1.875 1.875v11a1.877 1.877 0 01-1.875 1.875zm.625-12.875a.626.626 0 00-.625-.625h-.75v1.25h-1.25v-1.25h-8.25v1.25h-1.25v-1.25h-.75a.626.626 0 00-.625.625v1.501h13.5V3.124zm0 2.75H1.25v8.25c0 .345.28.625.625.625h12.25c.345 0 .625-.28.625-.625v-8.25zm-2.375 3.812h1.25v1.251h-1.25V9.686zm0-2.499h1.25v1.25h-1.25v-1.25zm-2.5 4.999h1.25v1.251h-1.25v-1.251zm0-2.5h1.25v1.251h-1.25V9.686zm0-2.499h1.25v1.25h-1.25v-1.25zm-2.5 4.999h1.25v1.251h-1.25v-1.251zm0-2.5h1.25v1.251h-1.25V9.686zm0-2.499h1.25v1.25h-1.25v-1.25zm-2.5 4.999h1.25v1.251h-1.25v-1.251zm0-2.5h1.25v1.251h-1.25V9.686zm0-2.499h1.25v1.25h-1.25v-1.25zm-2.5 4.999h1.25v1.251h-1.25v-1.251zm0-2.5h1.25v1.251h-1.25V9.686zm0-2.499h1.25v1.25h-1.25v-1.25z"/></svg>