<svg xmlns="http://www.w3.org/2000/svg" width="20" height="21"><path fill-rule="evenodd" fill="#fe3e57" d="M17.071 17.622A9.937 9.937 0 0110 20.55a9.937 9.937 0 01-7.071-2.928A9.938 9.938 0 010 10.55a9.934 9.934 0 012.929-7.071A9.937 9.937 0 0110 .551a9.937 9.937 0 017.071 2.928A9.934 9.934 0 0120 10.55a9.938 9.938 0 01-2.929 7.072zM10 1.722c-4.868 0-8.828 3.961-8.828 8.828 0 4.868 3.96 8.828 8.828 8.828 4.868 0 8.828-3.96 8.828-8.828 0-4.867-3.96-8.828-8.828-8.828zm-.811 12.037a.585.585 0 01-.829 0l-3.138-3.138a.586.586 0 11.829-.829l2.724 2.724 5.174-5.174a.585.585 0 11.828.828l-5.588 5.589z"/></svg>