<svg xmlns="http://www.w3.org/2000/svg" width="1922" height="745"><path fill-rule="evenodd" fill="#EDEDED" d="M1915.753 744.985h-2.208l8.455-8v2.089l-6.247 5.911zm-37.766 0L1922 703.344v2.088l-41.807 39.553h-2.206zm-35.56 0L1922 669.702v2.089l-77.365 73.194h-2.208zm50.462-81.404L1922 636.059v2.09l-35.191 33.297 6.08-7.865zm16.216-62.388L1922 588.99v2.09l-11.964 11.317-.931-1.204zm-15.023-19.429L1922 555.347v2.091l-26.986 25.532-.932-1.206zm-15.026-19.428l42.944-40.63v2.09l-42.012 39.746-.932-1.206zm-15.354-15.354l-36.572-34.599-36.576 34.604.751-.971-1.672-1.582 1.815 1.398 5.192-6.712 30.49-28.825 30.632 28.982 4.26 5.534L1922 488.065v2.089l-59.046 55.862.748.966zm-14.694-23.501L1922 454.423v2.089l-72.06 68.174-.932-1.205zm-15.022-19.427L1922 420.782v2.088l-87.083 82.39-.931-1.206zm58.903-89.394L1922 387.139v2.09l-35.186 33.29 6.075-7.859zm16.216-62.389l12.895-12.2v2.088l-11.964 11.318-.931-1.206zm-15.023-19.427L1922 306.429v2.089l-26.986 25.531-.932-1.205zm-15.026-19.428L1922 272.787v2.089l-42.012 39.745-.932-1.205zm-15.354-15.353l-36.572-34.599-36.576 34.603.751-.971-1.674-1.585 1.817 1.401 5.192-6.712 30.49-28.825 30.632 28.982 4.26 5.535L1922 239.145v2.089l-59.046 55.862.748.967zm-14.694-23.502L1922 205.503v2.089l-72.06 68.174-.932-1.205zm-15.022-19.427L1922 171.862v2.088l-87.083 82.389-.931-1.205zm58.903-89.393L1922 138.219v2.089l-35.191 33.297 6.08-7.864zm16.216-62.389L1922 91.15v2.089l-11.964 11.318-.931-1.205zm-15.023-19.428L1922 57.507v2.09l-26.986 25.533-.932-1.206zm-15.026-19.428L1922 23.866v2.09l-42.012 39.746-.932-1.206zm-15.354-15.353l-36.572-34.6-36.576 34.604.751-.971-1.674-1.584 1.817 1.4 5.192-6.712 30.49-28.825 30.632 28.982 4.26 5.533L1910.637.976h2.205l-49.888 47.2.748.967zm-14.694-23.502L1875.077.976h2.208l-27.345 25.87-.932-1.205zm-15.022-19.428l5.533-5.237h2.208l-6.81 6.444-.931-1.207zM1812.535.976h2.206l5.533 5.237-.929 1.205-6.81-6.442zm-35.56 0h2.208l26.068 24.665-.931 1.205-27.345-25.87zm12.319 45.298L1741.417.976h2.209l46.6 44.092-.932 1.206zm-15.023 19.428l-43.377-41.04-43.377 41.04-.934-1.207 44.228-41.841.073.085.086-.094 44.233 41.851-.932 1.206zm-103.042-16.559l-36.573-34.6-36.565 34.595.743-.962-1.664-1.573 1.804 1.389 5.192-6.712 30.49-28.825 30.635 28.982 4.257 5.533L1718.163.976h2.205l-49.888 47.2.749.967zm-14.695-23.502L1682.605.976h2.206l-27.345 25.87-.932-1.205zm-15.022-19.428l5.533-5.237h2.208l-6.81 6.444-.931-1.207zM1620.061.976h2.206l5.536 5.237-.932 1.207-6.81-6.444zm-35.557 0h2.205l26.069 24.665-.932 1.205-27.342-25.87zm12.319 45.297L1548.946.976h2.205l46.601 44.092-.929 1.205zm-15.025 19.429l-43.378-41.04-43.377 41.04-.932-1.206 44.226-41.842.073.083.083-.094 44.236 41.853-.931 1.206zm-103.043-16.559l-36.573-34.6-36.564 34.595.743-.962-49.889-47.2h2.206l48.614 45.994 4.4-5.69 30.49-28.825 30.635 28.982 4.257 5.533L1525.689.976h2.208l-49.891 47.2.749.967zm-14.692-23.502L1490.132.976h2.205l-27.345 25.869-.929-1.204zm-15.025-19.428l5.536-5.237h2.205l-6.81 6.444-.931-1.207zM1427.587.976h2.206l5.536 5.237-.932 1.207-6.81-6.444zm-35.557 0h2.205l26.068 24.665-.931 1.205L1392.03.976zm-2.706 64.726l-43.378-41.04-43.377 41.04-.931-1.206 44.225-41.842.073.083.083-.094 44.236 41.853-.931 1.206zm-103.051-16.568l-36.562-34.591-36.576 34.604.752-.971-49.889-47.2h2.206l48.615 45.994 4.399-5.69 30.493-28.825 30.632 28.982 4.258 5.533L1333.215.976h2.208l-49.891 47.2.741.958zm-14.684-23.493L1297.658.976h2.205l-27.342 25.87-.932-1.205zm-15.025-19.428L1262.1.976h2.205l-6.81 6.444-.931-1.207zM1235.113.976h2.206l5.536 5.237-.931 1.207-6.811-6.444zm-35.557 0h2.205l26.069 24.665-.932 1.205-27.342-25.87zm-2.706 64.726l-43.378-41.04-43.377 41.04-.931-1.206 44.308-41.923 44.31 41.923-.932 1.206zm-103.04-16.559l-36.573-34.6-36.575 34.604.751-.971-1.675-1.585 1.817 1.4 5.19-6.712 30.492-28.824 30.632 28.982 4.258 5.533L1140.741.976h2.208l-49.888 47.2.749.967zm-14.695-23.502L1105.184.976h2.208l-27.345 25.87-.932-1.205zM1064.09 6.212l5.536-5.236h2.208l-6.81 6.444-.934-1.208zM1042.64.976h2.208l5.533 5.237-.931 1.207-6.81-6.444zm-35.558 0h2.205l26.069 24.665-.932 1.205-27.342-25.87zm12.319 45.298L971.525.976h2.205l46.603 44.092-.932 1.206zm-15.023 19.427l-43.379-41.039-43.377 41.04-.932-1.206 44.309-41.923 44.309 41.923-.93 1.205zM901.336 49.143l-36.573-34.6-36.575 34.604.751-.971-1.675-1.585 1.818 1.4 5.189-6.712 30.492-28.824 30.633 28.982 4.26 5.533L948.27.976h2.205l-49.888 47.2.749.967zm-14.694-23.502L912.71.976h2.208l-27.345 25.87-.931-1.205zM871.619 6.213l5.533-5.237h2.208l-6.809 6.444-.932-1.207zM850.166.976h2.208l5.533 5.237-.931 1.207-6.81-6.444zm-35.558 0h2.206l26.068 24.665-.929 1.204L814.608.976zm12.32 45.298L779.051.976h2.205l46.603 44.092-.931 1.206zm-15.023 19.428l-43.377-41.04-43.38 41.04-.932-1.206 44.309-41.923 44.311 41.923-.931 1.206zM708.862 49.143l-36.573-34.6-36.575 34.604.751-.971-1.675-1.585 1.818 1.4 5.189-6.712 30.492-28.824 30.633 28.982 4.26 5.533L755.796.976h2.206l-49.889 47.2.749.967zm-14.694-23.502L720.236.976h2.208l-27.345 25.87-.931-1.205zM679.145 6.213l5.534-5.237h2.208l-6.81 6.444-.932-1.207zM657.692.976h2.208l5.534 5.237-.932 1.207-6.81-6.444zm-35.558 0h2.206l26.071 24.665-.932 1.205L622.134.976zm12.32 45.298L586.577.976h2.208l46.6 44.092-.931 1.206zm-15.023 19.428l-43.377-41.04-43.38 41.04-.932-1.206 44.312-41.923 44.308 41.923-.931 1.206zM516.388 49.143l-36.573-34.6-36.575 34.604.751-.971-1.675-1.584 1.818 1.4 5.191-6.712 30.49-28.825 30.633 28.982 4.26 5.533L563.322.976h2.206l-49.889 47.2.749.967zm-14.694-23.502L527.762.976h2.208l-27.344 25.87-.932-1.205zM486.671 6.213l5.534-5.237h2.208l-6.81 6.444-.932-1.207zM465.221.976h2.205l5.534 5.237-.929 1.205-6.81-6.442zm-35.56 0h2.208l26.068 24.665-.932 1.205L429.661.976zm12.319 45.298L394.104.976h2.206l46.601 44.092-.931 1.206zm-15.023 19.428l-43.377-41.04-43.379 41.04-.932-1.206 44.284-41.897.073.073.026-.029 44.237 41.853-.932 1.206zM323.91 49.138l-36.567-34.595-36.573 34.6.749-.967-1.672-1.581 1.815 1.397 5.191-6.712 30.49-28.825 30.631 28.982 4.26 5.533L370.849.976h2.206l-49.889 47.2.744.962zm-14.689-23.497L335.29.976h2.206l-27.343 25.87-.932-1.205zM294.196 6.213l5.536-5.237h2.207l-6.81 6.444-.933-1.207zM272.747.976h2.205l5.535 5.237-.932 1.207-6.808-6.444zm-35.559 0h2.207l26.068 24.665-.932 1.205L237.188.976zm12.319 45.298L201.631.976h2.206l46.602 44.092-.932 1.206zm-15.024 19.428l-43.377-41.04-43.379 41.04-.931-1.206 44.225-41.842.016.018.085-.084 44.293 41.908-.932 1.206zM131.436 49.138L94.869 14.543l-36.57 34.599.747-.966-1.669-1.578 1.812 1.393 5.19-6.712 30.49-28.824L125.5 41.437l4.26 5.533L178.375.976h2.206l-49.889 47.2.744.962zm-14.689-23.497L142.817.976h2.206l-27.344 25.87-.932-1.205zM101.722 6.213l5.536-5.237h2.207l-6.809 6.444-.934-1.207zM80.273.976h2.207l5.535 5.237-.932 1.205-6.81-6.442zm-35.559 0h2.207l26.068 24.665-.931 1.205L44.714.976zm12.321 45.298L9.158.976h2.205l46.603 44.092-.931 1.206zM42.009 65.702L0 25.956v-2.09l42.941 40.63-.932 1.206zM26.987 85.13L0 59.597v-2.09l27.919 26.417-.932 1.206zm-15.025 19.427L0 93.239V91.15l12.895 12.201-.933 1.206zm18.788 63.302l2.763 3.572 61.356-58.05 59.347 56.148-.742.959 2.183 1.679 4.971-6.426 30.478-28.814 30.622 28.971 1.494 1.96 2.764 3.573 61.357-58.05 61.355 58.05 1.674-2.165 2.729-3.525 30.478-28.814 30.621 28.971 4.259 5.534 61.356-58.051 59.345 56.148-.772.999 2.183 1.681 5.004-6.468 30.476-28.814 30.624 28.971 1.492 1.96 2.766 3.573 61.356-58.05 61.357 58.05 4.338-5.608 30.541-28.896 30.624 28.971 1.495 1.96 2.763 3.573 61.356-58.05 61.357 58.051 2.733-3.537 1.667-2.154 30.479-28.814 30.624 28.971 1.495 1.96 2.762 3.573 61.357-58.05 61.356 58.051 2.734-3.537 1.666-2.154 30.479-28.814 30.625 28.971 1.492 1.96 2.765 3.573 61.357-58.05 61.354 58.05 4.402-5.69 30.455-28.79.014.014.024-.024 30.608 28.957 4.257 5.534 61.357-58.051 61.357 58.05.947-1.224 3.455-4.466 30.455-28.79.014.014.024-.024 30.608 28.957 4.257 5.534 61.357-58.051 59.345 56.148-.929 1.206-58.416-55.266-60.425 57.168.748.967-36.559-34.589-36.572 34.601.759-.98-60.425-57.167-60.425 57.169.749.965-36.56-34.588-36.561 34.591.751-.97-60.425-57.167-60.428 57.169.749.965-36.56-34.588-36.561 34.591.751-.97-60.425-57.167-60.425 57.168.754.976-36.567-34.598-36.568 34.598.757-.977-60.425-57.167-60.425 57.168.754.973-36.564-34.595-36.573 34.601.759-.98-60.425-57.167-60.425 57.168.751.972-36.561-34.594-36.57 34.6.756-.979-60.425-57.167-60.424 57.168.753.973-36.564-34.595-36.566 34.595.754-.974-60.425-57.167-60.426 57.168.749.969-36.56-34.591-36.566 34.595.754-.974-60.425-57.167-60.424 57.168.752.973L0 140.308v-2.088l29.254 27.678 1.496 1.961zm56.333 88.479L0 173.95v-2.088l88.015 83.272-.932 1.204zm-15.025 19.428L0 207.592v-2.089l72.989 69.058-.931 1.205zm-15.023 19.428L0 241.234v-2.089l57.965 54.845-.93 1.204zm-15.026 19.428L0 274.876v-2.089l42.941 40.629-.932 1.206zm-15.022 19.427L0 308.518v-2.089l27.918 26.415-.931 1.205zm-15.025 19.428L0 342.159v-2.088l12.895 12.2-.933 1.206zm18.788 63.302l2.763 3.572 61.356-58.05 59.347 56.148-.932 1.205-58.415-55.265-60.425 57.168.75.97L0 389.229v-2.088l29.254 27.677 1.496 1.961zm56.333 88.479L0 422.87v-2.088l88.015 83.272-.932 1.204zm-15.025 19.428L0 456.512v-2.089l72.989 69.058-.931 1.205zm-15.023 19.428L0 490.154v-2.089l57.966 54.843-.931 1.206zm-15.026 19.428L0 523.796v-2.09l42.941 40.63-.932 1.206zM26.987 582.97L0 557.438v-2.091l27.919 26.417-.932 1.206zm-15.025 19.427L0 591.08v-2.09l12.895 12.201-.933 1.206zM30.75 665.7l2.763 3.571 61.356-58.05 59.347 56.148-.742.959 2.183 1.679 4.971-6.426 30.478-28.814 30.622 28.971 1.494 1.96 2.764 3.573 61.357-58.05 61.355 58.05 1.674-2.164 2.729-3.526 30.478-28.814 30.621 28.971 4.259 5.534 61.356-58.051 59.345 56.148-.772 1 2.183 1.679 5.004-6.467 30.476-28.814 30.624 28.971 1.492 1.96 2.766 3.573 61.356-58.05 61.357 58.05 4.338-5.608 30.541-28.896 30.624 28.971 1.495 1.96 2.763 3.573 61.356-58.05 61.357 58.051 2.733-3.537 1.667-2.154 30.479-28.814 30.624 28.971 1.495 1.96 2.762 3.573 61.357-58.05 61.356 58.051 2.734-3.537 1.666-2.154 30.479-28.814 30.625 28.971 1.492 1.96 2.765 3.573 61.357-58.05 61.354 58.05 4.402-5.69 30.455-28.79.014.015.024-.025 30.608 28.957 4.257 5.534 61.357-58.051 61.357 58.05.947-1.223 3.455-4.467 30.455-28.79.014.015.024-.025 30.608 28.957 4.257 5.534 61.357-58.051 59.345 56.148-.929 1.206-58.416-55.266-60.425 57.168.748.967-36.559-34.588-36.572 34.6.759-.98-60.425-57.167-60.425 57.17.749.964-36.56-34.587-36.561 34.591.751-.971-60.425-57.167-60.428 57.17.749.964-36.56-34.587-36.561 34.591.751-.971-60.425-57.167-60.425 57.168.754.977-36.567-34.598-36.568 34.598.757-.978-60.425-57.167-60.425 57.168.754.974-36.564-34.595-36.573 34.6.759-.98-60.425-57.167-60.425 57.168.751.973-36.561-34.594-36.57 34.599.756-.979-60.425-57.167-60.424 57.168.753.974-36.564-34.595-36.566 34.595.754-.975-60.425-57.167-60.426 57.168.749.97-36.56-34.591-36.566 34.595.754-.975-60.425-57.167-60.424 57.168.752.974L0 638.149v-2.088l29.254 27.677 1.496 1.962zm46.614 79.285L0 671.791v-2.089l79.57 75.283h-2.206zm-35.559 0L0 705.432v-2.088l44.013 41.641h-2.208zm-35.558 0L0 739.074v-2.089l8.455 8H6.247zm102.896-19.333l-.931 1.205-13.343-12.623-13.343 12.624-.931-1.206 14.274-13.506 14.274 13.506zm15.024-19.429l-.931 1.207-28.367-26.838-28.367 26.838-.931-1.207 29.298-27.719 29.298 27.719zm-73.619-19.427l44.321-41.933 44.322 41.933-.931 1.206-43.391-41.051-43.389 41.051-.932-1.206zm221.496 58.189h-2.207l-78.731-74.487-78.732 74.487h-2.206l80.938-76.577 80.938 76.577zm-35.559 0h-2.206l-43.173-40.846-43.173 40.846h-2.208l45.381-42.935 45.379 42.935zm-35.557 0h-2.207l-7.615-7.204-7.615 7.204h-2.207l9.822-9.293 9.822 9.293zm100.688-19.333l-.932 1.206-13.341-12.624L274 726.858l-.931-1.206 14.274-13.506 14.273 13.506zm15.025-19.429l-.932 1.205-28.366-26.836-28.367 26.838-.932-1.207 29.299-27.719 29.298 27.719zm-73.621-19.427l44.323-41.933 44.322 41.933-.933 1.206-43.389-41.051-43.391 41.051-.932-1.206zm221.498 58.189h-2.208l-78.73-74.487-78.732 74.487h-2.208l80.94-76.577 80.938 76.577zm-35.56 0h-2.206l-43.172-40.846-43.174 40.846h-2.207l45.38-42.935 45.379 42.935zm-35.556 0h-2.207l-7.615-7.204-7.615 7.204h-2.207l9.822-9.293 9.822 9.293zm100.688-19.333l-.932 1.206-13.343-12.624-13.342 12.624-.932-1.206 14.274-13.506 14.275 13.506zm15.022-19.429l-.929 1.205-28.368-26.836-28.365 26.838-.932-1.207 29.297-27.719 29.297 27.719zm-73.619-19.427l44.322-41.933 44.323 41.933-.932 1.206-43.391-41.051-43.39 41.051-.932-1.206zm221.499 58.189h-2.208l-78.73-74.487-78.733 74.487h-2.208l80.941-76.577 80.938 76.577zm-35.56 0h-2.206l-43.172-40.846-43.176 40.846h-2.205l45.381-42.935 45.378 42.935zm-35.558 0h-2.205l-7.615-7.204-7.615 7.204h-2.208l9.823-9.293 9.82 9.293zm100.689-19.333l-.931 1.206-13.343-12.624-13.342 12.624-.932-1.206 14.274-13.506 14.274 13.506zm15.023-19.429l-.931 1.207-28.366-26.838-28.365 26.838-.932-1.207 29.297-27.719 29.297 27.719zm-73.619-19.427l44.322-41.933 44.323 41.933-.932 1.206-43.391-41.051-43.39 41.051-.932-1.206zm221.499 58.189h-2.208l-78.73-74.487-78.733 74.487h-2.208l80.938-76.577 80.941 76.577zm-35.561 0H811.7l-43.172-40.846-43.176 40.846h-2.205l45.378-42.935 45.38 42.935zm-35.557 0h-2.208l-7.612-7.204-7.615 7.204h-2.208l9.82-9.293 9.823 9.293zm100.689-19.333l-.931 1.206-13.343-12.624-13.342 12.624-.932-1.206 14.274-13.506 14.274 13.506zm15.023-19.429l-.932 1.207-28.365-26.838-28.365 26.838-.932-1.207 29.297-27.719 29.297 27.719zm-73.619-19.427l44.322-41.933 44.323 41.933-.932 1.206-43.391-41.051-43.391 41.051-.931-1.206zm221.496 58.189h-2.206l-78.732-74.487-78.73 74.487h-2.208l80.938-76.577 80.938 76.577zm-35.558 0h-2.208l-43.172-40.846-43.173 40.846h-2.208l45.381-42.935 45.38 42.935zm-35.557 0h-2.208l-7.613-7.204-7.615 7.204h-2.208l9.823-9.293 9.821 9.293zm100.689-19.333l-.932 1.206-13.342-12.624-13.343 12.624-.931-1.206 14.274-13.506 14.274 13.506zm15.023-19.429l-.932 1.207-28.365-26.838-28.365 26.838-.935-1.208 29.3-27.718 29.297 27.719zm-73.619-19.427l44.322-41.933 44.322 41.934-.931 1.205-43.391-41.051-43.391 41.051-.931-1.206zm221.496 58.189h-2.206l-78.733-74.487-78.73 74.487h-2.208l80.938-76.577 80.939 76.577zm-35.558 0h-2.208l-43.173-40.846-43.172 40.846h-2.208l45.38-42.935 45.381 42.935zm-35.557 0h-2.208l-7.616-7.204-7.615 7.204h-2.205l9.82-9.293 9.824 9.293zm100.686-19.333l-.929 1.205-13.342-12.623-13.343 12.624-.931-1.206 14.274-13.506 14.271 13.506zm15.026-19.429l-.932 1.207-28.365-26.838-28.368 26.838-.932-1.207 29.3-27.719 29.297 27.719zm-73.619-19.427l44.322-41.933 44.32 41.933-.932 1.206-43.388-41.051-43.391 41.051-.931-1.206zm140.547-18.348l.024-.025 80.925 76.562h-2.206l-78.733-74.487-78.73 74.487h-2.208l80.914-76.552.014.015zm0 33.641l.024-.024 45.367 42.92h-2.208l-43.173-40.846-43.172 40.846h-2.208l45.356-42.91.014.014zm0 33.641l.024-.024 9.809 9.279h-2.207l-7.616-7.204-7.615 7.204h-2.205l9.796-9.269.014.014zm110.52-10.078l-.931 1.206-13.343-12.624-13.343 12.623-.929-1.205 14.272-13.506 14.274 13.506zm15.026-19.429l-.932 1.207-28.368-26.838-28.365 26.838-.932-1.207 29.297-27.719 29.3 27.719zm-73.62-19.427l44.32-41.933 44.322 41.933-.931 1.206-43.391-41.051-43.388 41.051-.932-1.206zm140.548-18.348l.024-.025 80.925 76.562h-2.209l-78.73-74.487-78.733 74.487h-2.205l80.914-76.552.014.015zm0 33.641l.024-.024 45.367 42.92h-2.208l-43.173-40.846-43.172 40.846h-2.208l45.356-42.91.014.014zm0 33.639l.024-.022 9.81 9.279h-2.209l-7.615-7.204-7.615 7.204h-2.208l9.799-9.269.014.012zm110.52-10.076l-.932 1.206-13.342-12.624-13.342 12.624-.932-1.206 14.274-13.506 14.274 13.506zm15.026-19.429l-.932 1.207-28.368-26.838-28.365 26.838-.932-1.207 29.297-27.719 29.3 27.719zm-73.62-19.427l44.32-41.933 44.322 41.933-.931 1.206-43.391-41.051-43.388 41.051-.932-1.206zm140.548-18.348l.024-.025 80.924 76.562h-2.208l-78.73-74.487-78.733 74.487h-2.205l80.914-76.552.014.015zm0 33.643l.026-.024 45.362 42.918h-2.205l-43.173-40.846-43.173 40.846h-2.207l45.356-42.91.014.016zm0 33.639l.024-.023 9.807 9.278h-2.206l-7.615-7.204-7.615 7.204h-2.208l9.799-9.269.014.014zm96.246-55.138l-28.365 26.838-.932-1.207 29.297-27.719 29.297 27.719-.929 1.205-28.368-26.836zm0-33.641l-43.391 41.051-.932-1.206 44.323-41.933 44.322 41.933-.931 1.206-43.391-41.051zm0-33.642l-60.425 57.168.754.974-36.565-34.595-36.57 34.599 2.588-3.343 3.503-4.531 30.455-28.79.014.015.024-.025 30.608 28.957 4.257 5.534 61.357-58.051 59.345 56.148-.932 1.205-58.413-55.265zm0-33.641l-73.437 69.479-.931-1.206 74.368-70.362 74.37 70.362-.931 1.206-73.439-69.479zm89.393 48.845l-.931 1.206-88.462-83.693-88.462 83.693-.932-1.206 89.394-84.576 89.393 84.576zm-185.629-139.652l-60.414 57.155.749.967-36.573-34.6-36.565 34.595.743-.962-1.661-1.571 1.801 1.387 5.192-6.712 30.49-28.825 30.635 28.982 4.257 5.534 61.322-58.015.014.015.024-.024 59.318 56.121-.932 1.206-58.4-55.253zm0-33.642l-73.428 69.467-.932-1.205 74.336-70.327.014.016.026-.024 74.341 70.335-.931 1.205-73.426-69.467zm0-33.642l-88.451 83.683-.931-1.206 89.358-84.541.014.016.026-.024 89.364 84.549-.929 1.204-88.451-83.681zm96.236 43.737l-13.343 12.624-.931-1.206 14.274-13.507 14.274 13.507-.932 1.206-13.342-12.624zm0-33.642l-28.365 26.838-.932-1.207 29.297-27.719 29.297 27.719-.929 1.205-28.368-26.836zm0-33.642l-43.391 41.052-.932-1.207 44.323-41.932 44.322 41.932-.931 1.207-43.391-41.052zm0-33.641l-60.425 57.168.751.97-36.562-34.591-36.554 34.583 6.075-7.859 30.455-28.789.014.015.024-.025 30.608 28.957 4.257 5.534 61.357-58.051 59.345 56.148-.932 1.205-58.413-55.265zm0-33.641l-73.437 69.479-.931-1.206 74.368-70.362 74.37 70.362-.931 1.206-73.439-69.479zm89.393 48.845l-.931 1.206-88.462-83.693-88.462 83.693-.932-1.206 89.394-84.576 89.393 84.576zm-185.629-139.652l-60.414 57.155.749.967-36.573-34.599-36.567 34.595.745-.963-1.664-1.573 1.804 1.389 5.192-6.712 30.49-28.825 30.635 28.982 4.257 5.535 61.322-58.016.014.015.024-.024 59.318 56.123-.932 1.204-58.4-55.253zm0-33.642l-73.428 69.467-.932-1.205 74.336-70.327.014.016.026-.024 74.341 70.335-.931 1.205-73.426-69.467zm-51.916-17.344l-.931 1.206-43.391-41.051-43.388 41.051-.932-1.206 44.32-41.933 44.322 41.933zm-72.687 20.634l-.932-1.206 29.297-27.719 29.3 27.719-.932 1.206-28.368-26.837-28.365 26.837zm28.365 6.805l-13.342 12.623-.932-1.205 14.274-13.507 14.274 13.507-.932 1.205-13.342-12.623zm-96.246-45.787l.024-.024 89.369 84.551-.932 1.205-88.451-83.682-88.451 83.682-.931-1.205 89.358-84.542.014.015zm-51.906 18.348l-.931 1.206-43.391-41.051-43.388 41.051-.932-1.206 44.32-41.933 44.322 41.933zm-140.568-18.348l.024-.024 89.369 84.551-.932 1.205-88.451-83.682-88.451 83.682-.931-1.205 89.358-84.542.014.015zm-51.905 18.348l-.932 1.206-43.388-41.051-43.391 41.051-.931-1.206 44.322-41.933 44.32 41.933zm-51.176 66.179l-.931 1.205-88.452-83.682-88.448 83.682-.934-1.207 89.382-84.564 89.383 84.566zm-141.296-66.178l-.931 1.205-43.391-41.051-43.391 41.051-.931-1.206 44.322-41.933 44.322 41.934zm-51.178 66.178l-.931 1.205-88.451-83.682-88.448 83.682-.932-1.205 89.38-84.566 89.382 84.566zm-141.295-66.179l-.932 1.206-43.391-41.051-43.391 41.051-.931-1.206 44.322-41.933 44.323 41.933zm-51.179 66.179l-.931 1.205-88.448-83.682-88.451 83.682-.932-1.205 89.38-84.566 89.382 84.566zm-141.295-66.179l-.932 1.206-43.391-41.051-43.39 41.051-.932-1.206 44.322-41.933 44.323 41.933zm-51.178 66.179l-.932 1.205-88.448-83.682-88.451 83.682-.932-1.205 89.383-84.566 89.38 84.566zm-141.296-66.179l-.932 1.206-43.391-41.051-43.39 41.051-.932-1.206 44.322-41.933 44.323 41.933zm-51.178 66.179l-.929 1.204-88.451-83.681-88.451 83.682-.932-1.205 89.382-84.566 89.381 84.566zm-141.295-66.179l-.933 1.206-43.389-41.051-43.391 41.051-.932-1.206 44.323-41.933 44.322 41.933zm-51.178 66.179l-.932 1.205-88.449-83.682-88.45 83.682-.933-1.205 89.383-84.566 89.381 84.566zM50.548 188.955l44.321-41.933 44.322 41.933-.931 1.206-43.391-41.051-43.389 41.051-.932-1.206zm15.023 19.428l29.298-27.719 29.298 27.719-.931 1.206-28.367-26.837-28.367 26.837-.931-1.206zm15.024 19.429l14.274-13.507 14.274 13.507-.931 1.204-13.343-12.622-13.343 12.623-.931-1.205zm37.084 47.954l-.932-1.205 74.359-70.351 74.357 70.351-.932 1.205-73.425-69.467-73.427 69.467zm141.297-66.177l-.932-1.206 29.299-27.719 29.298 27.719-.932 1.205-28.366-26.836-28.367 26.837zm28.367 6.805L274 229.017l-.931-1.205 14.274-13.507 14.273 13.507-.932 1.205-13.341-12.623zM59.189 296.912l5.19-6.712 30.49-28.825 30.631 28.982 4.26 5.535 61.346-58.04 61.344 58.04 4.403-5.692 30.49-28.825 30.631 28.982 4.26 5.535 61.346-58.04 59.331 56.138-.931 1.204-58.4-55.253-60.414 57.155.744.963-36.567-34.595-36.574 34.602.75-.97-60.413-57.155-60.414 57.155.744.963-36.567-34.595-36.571 34.599.748-.967-1.669-1.58 1.812 1.396zM5.476 379.593l89.393-84.576 89.393 84.576-.933 1.206-88.46-83.693-88.462 83.693-.931-1.206zm15.955 20.634l-.931-1.206 74.369-70.362 74.369 70.362-.931 1.206-73.438-69.479-73.438 69.479zm169.675-14.38l30.622 28.971 1.494 1.96 2.764 3.573 61.357-58.05 59.345 56.148-.932 1.205-58.413-55.265-60.426 57.168.748.967-36.559-34.588-36.554 34.583 6.076-7.859 30.478-28.813zm89.381 118.207l-.932 1.206-88.449-83.683-88.45 83.683-.934-1.206 89.384-84.566 89.381 84.566zM50.548 437.875l44.321-41.932 44.322 41.932-.931 1.207-43.391-41.052-43.389 41.052-.932-1.207zm15.023 19.428l29.298-27.719 29.298 27.719-.931 1.207-28.367-26.838-28.367 26.838-.931-1.207zm15.024 19.429l14.274-13.507 14.274 13.507-.931 1.205-13.343-12.623-13.343 12.624-.931-1.206zm-21.406 69.1l5.19-6.712 30.49-28.825 30.631 28.982 4.26 5.534 61.346-58.039 59.333 56.136-.932 1.206-58.401-55.253-60.414 57.155.744.962-36.567-34.595-36.57 34.599.747-.966-1.667-1.577 1.81 1.393zm118.587 56.565l-.932-1.204 14.262-13.496 14.262 13.494-.932 1.206-13.33-12.611-13.33 12.611zm13.345-48.328l29.271 27.695-.933 1.206-28.353-26.826-28.354 26.826-.932-1.206 29.203-27.629.014.016.084-.082zm-44.325 8.267l44.225-41.842.016.018.085-.083 44.293 41.907-.932 1.206-43.377-41.039-43.379 41.039-.931-1.206zm223.452 40.061l-.93-1.204 14.262-13.496 14.262 13.494-.932 1.206-13.33-12.611-13.332 12.611zm192.474 0l-.932-1.204 14.264-13.496 14.261 13.494-.932 1.206-13.329-12.611-13.332 12.611zm192.474 0l-.932-1.204 14.264-13.496 14.26 13.494-.931 1.206-13.329-12.611-13.332 12.611zm192.474 0l-.932-1.204 14.263-13.496 14.261 13.494-.932 1.206-13.331-12.611-13.329 12.611zm192.474 0l-.932-1.204 14.263-13.496 14.261 13.494-.932 1.206-13.332-12.611-13.328 12.611zm192.473 0l-.931-1.204 14.234-13.47.016.015.024-.026 14.25 13.479-.932 1.206-13.332-12.611-13.329 12.611zm192.472-.001l-.929-1.203 14.236-13.472.014.015.024-.024 14.25 13.479-.932 1.206-13.332-12.611-13.331 12.61zm13.404-48.271l29.214 27.639-.932 1.206-28.355-26.826-28.354 26.826-.932-1.206 29.203-27.629.073.082.083-.092zm-44.382 8.211l44.226-41.842.073.084.083-.095 44.236 41.853-.931 1.206-43.378-41.039-43.377 41.039-.932-1.206zm-148.092-8.211l29.214 27.639-.932 1.206-28.355-26.826-28.354 26.826-.932-1.206 29.203-27.629.073.082.083-.092zm-44.381 8.211l44.225-41.842.073.084.083-.095 44.236 41.853-.931 1.206-43.378-41.039-43.377 41.039-.931-1.206zm-118.879 19.428l-.932 1.206-28.355-26.826-28.354 26.826-.932-1.206 29.286-27.708 29.287 27.708zm-73.595-19.428l44.308-41.922 44.31 41.922-.932 1.206-43.378-41.039-43.377 41.039-.931-1.206zm429.256-73.475l-60.414 57.155.749.967-36.573-34.6-36.564 34.595.743-.962-60.415-57.155-60.414 57.155.741.958-36.562-34.591-36.576 34.604.752-.971-60.415-57.155-60.411 57.155.749.967-36.573-34.6-36.575 34.604.751-.971-1.675-1.582 1.817 1.397 5.19-6.712 30.492-28.824 30.632 28.982 4.258 5.534 61.345-58.039 61.347 58.039 4.399-5.691 30.493-28.825 30.632 28.982 4.258 5.534 61.321-58.015.014.015.024-.024 61.332 58.024 4.4-5.691 30.49-28.825 30.635 28.982 4.257 5.534 61.322-58.015.014.015.024-.024 59.318 56.121-.929 1.205-58.403-55.252zm0-33.642l-73.428 69.466-.929-1.204 74.333-70.327.014.015.024-.024 74.344 70.336-.932 1.205-73.426-69.467zm0-33.642l-88.451 83.683-.931-1.206 89.358-84.541.014.014.024-.024 89.369 84.551-.932 1.206-88.451-83.683zm96.236 43.737l-13.342 12.624-.932-1.206 14.274-13.507 14.274 13.507-.932 1.206-13.342-12.624zm0-33.642l-28.365 26.838-.932-1.207 29.297-27.719 29.3 27.719-.932 1.207-28.368-26.838zm0-33.642l-43.388 41.052-.932-1.207 44.32-41.932 44.322 41.932-.931 1.207-43.391-41.052zm0-33.641l-60.425 57.168.746.963-36.557-34.584-36.554 34.583 6.075-7.859 30.455-28.789.014.015.024-.025 30.608 28.957 4.257 5.534 61.357-58.051 59.345 56.148-.929 1.206-58.416-55.266zm0-33.641l-73.436 69.479-.932-1.206 74.368-70.362 74.37 70.362-.931 1.206-73.439-69.479zm-599.3-56.187l-.932 1.205-73.425-69.467-73.426 69.467-.931-1.205 74.357-70.351 74.357 70.351zm-192.474 0l-.929 1.204-73.425-69.466-73.429 69.467-.931-1.205 74.357-70.351 74.357 70.351zm-192.471 0l-.932 1.205-73.425-69.467-73.428 69.467-.932-1.205 74.357-70.351 74.36 70.351zm-81.202 105.032l-.932 1.206-88.462-83.693-88.46 83.693-.933-1.206 89.393-84.576 89.394 84.576zm-141.32-66.177l-.932 1.206-43.377-41.04-43.379 41.039-.932-1.205 44.311-41.922 44.309 41.922zm-213.984 86.811l-.931-1.206 74.369-70.362 74.369 70.362-.933 1.206-73.436-69.479-73.438 69.479zm141.32-66.178l-.931-1.205 29.286-27.709 29.286 27.709-.933 1.206-28.353-26.826-28.355 26.825zm28.355 6.817l-13.332 12.611-.932-1.206 14.264-13.494 14.262 13.494-.932 1.206-13.33-12.611zm-.001 44.981l30.621 28.971 4.259 5.534 61.356-58.051 59.345 56.148-.931 1.205-58.414-55.265-60.424 57.168.751.97-36.562-34.591-36.559 34.588 6.08-7.864 30.478-28.813zm89.381 118.207l-.929 1.204-88.451-83.681-88.451 83.683-.933-1.206 89.383-84.566 89.381 84.566zm-229.94-66.179l44.323-41.932 44.322 41.932-.933 1.207-43.389-41.052-43.391 41.052-.932-1.207zm15.024 19.428l29.299-27.719 29.298 27.719-.932 1.205-28.366-26.836-28.367 26.838-.932-1.207zm15.025 19.429l14.274-13.507 14.273 13.507-.932 1.206-13.341-12.624L274 477.938l-.931-1.206zm37.084 47.954l-.932-1.205 74.358-70.351 74.358 70.351-.932 1.205-73.425-69.467-73.427 69.467zm650.846-69.467l-73.426 69.467-.931-1.205 74.357-70.351 74.357 70.351-.932 1.205-73.425-69.467zm0-33.642l-88.448 83.683-.932-1.206 89.38-84.566 89.382 84.566-.931 1.206-88.451-83.683zm82.895 56.361l-.931-1.206 14.274-13.507 14.274 13.507-.932 1.206-13.342-12.624-13.343 12.624zm192.474 0l-.931-1.206 14.274-13.507 14.271 13.507-.929 1.205-13.342-12.623-13.343 12.624zm205.814-12.624l-13.343 12.623-.929-1.205 14.272-13.507 14.274 13.507-.931 1.206-13.343-12.624zm0-33.642l-28.365 26.838-.932-1.207 29.297-27.719 29.3 27.719-.932 1.207-28.368-26.838zm0-33.642l-43.388 41.052-.932-1.207 44.32-41.932 44.322 41.932-.931 1.207-43.391-41.052zm0-33.641l-60.425 57.17.746.961-36.557-34.584-36.553 34.583 6.074-7.859 30.455-28.789.014.015.024-.025 30.608 28.957 4.257 5.534 61.357-58.051 59.348 56.149-.932 1.205-58.416-55.266zm0-33.641l-73.436 69.479-.932-1.206 74.368-70.362 74.371 70.362-.932 1.206-73.439-69.479zm-96.246-59.215l.024-.024 44.295 41.907-.931 1.206-43.378-41.04-43.377 41.039-.931-1.205 44.284-41.898.014.015zm-28.344 62.516l-.932-1.205 29.262-27.685.014.013.024-.023 29.273 27.695-.932 1.205-28.355-26.825-28.354 26.825zm28.354 6.817l-13.329 12.611-.931-1.206 14.234-13.468.016.015.024-.026 14.25 13.479-.932 1.206-13.332-12.611zm-6.842 38.725l-.934 1.208-88.459-83.693-88.462 83.693-.931-1.206 89.393-84.576 89.393 84.574zm-141.322-66.175l-.932 1.206-43.378-41.04-43.377 41.039-.931-1.205 44.308-41.922 44.31 41.922zm-51.152 66.177l-.931 1.206-88.462-83.693-88.462 83.693-.932-1.206 89.394-84.576 89.393 84.576zm-141.322-66.177l-.93 1.205-43.379-41.039-43.377 41.039-.932-1.205 44.309-41.922 44.309 41.922zm-51.151 66.177l-.932 1.206-88.462-83.693-88.462 83.693-.931-1.206 89.393-84.576 89.394 84.576zm-141.321-66.177l-.931 1.206-43.377-41.04-43.38 41.039-.932-1.205 44.309-41.922 44.311 41.922zm-51.153 66.177l-.932 1.206-88.462-83.693-88.461 83.693-.932-1.206 89.393-84.576 89.394 84.576zm-229.941-66.177l44.312-41.922 44.308 41.922-.931 1.206-43.377-41.04-43.38 41.039-.932-1.205zm15.025 19.428l29.287-27.709 29.286 27.708-.935 1.207-28.351-26.826-28.355 26.825-.932-1.205zm15.023 19.427l14.264-13.494 14.261 13.494-.932 1.206-13.329-12.611-13.332 12.611-.932-1.206zm97.157 125.667l-.932-1.206 14.274-13.507 14.274 13.507-.931 1.206-13.343-12.624-13.342 12.624zm42.639-20.635l-.931 1.207-28.366-26.838-28.365 26.838-.932-1.207 29.297-27.719 29.297 27.719zm-73.619-19.428l44.322-41.932 44.323 41.932-.932 1.207-43.391-41.052-43.39 41.052-.932-1.207zm236.796 27.439l-13.342 12.624-.932-1.206 14.274-13.507 14.274 13.507-.931 1.206-13.343-12.624zm0-33.642l-28.365 26.838-.932-1.207 29.297-27.719 29.297 27.719-.932 1.207-28.365-26.838zm0-33.642l-43.391 41.052-.931-1.207 44.322-41.932 44.323 41.932-.932 1.207-43.391-41.052zm-265.91 2.197l-.932-1.206 74.368-70.362 74.371 70.361-.934 1.207-73.437-69.479-73.436 69.479zm140.388-67.383l29.287-27.709 29.283 27.709-.932 1.205-28.351-26.825-28.355 26.825-.932-1.205zm29.287 8.022l-13.332 12.611-.932-1.206 14.261-13.494 14.263 13.494-.931 1.206-13.329-12.611zm96.235 23.523l-60.425 57.168.752.97-36.562-34.591-36.565 34.592 6.018-7.783 30.544-28.898 30.624 28.971 1.495 1.96 2.763 3.573 61.356-58.05 59.345 56.148-.932 1.205-58.413-55.265zm-73.439 35.838l-.931-1.206 74.37-70.362 74.371 70.361-.935 1.207-73.436-69.479-73.439 69.479zm141.32-66.18l-.929-1.203 29.286-27.709 29.284 27.709-.932 1.205-28.354-26.825-28.355 26.823zm28.355 6.819l-13.329 12.611-.932-1.206 14.263-13.494 14.261 13.494-.932 1.206-13.331-12.611zm22.799 59.361l-.932-1.206 74.371-70.362 74.368 70.362-.932 1.206-73.436-69.479-73.439 69.479zm141.32-66.178l-.932-1.205 29.286-27.709 29.287 27.709-.932 1.205-28.355-26.825-28.354 26.825zm28.354 6.817l-13.328 12.611-.932-1.206 14.26-13.494 14.264 13.494-.932 1.206-13.332-12.611zm22.8 59.361l-.932-1.206 74.371-70.362 74.368 70.362-.932 1.206-73.436-69.479-73.439 69.479zm102.736 57.076l-.932 1.207-28.365-26.838-28.368 26.838-.932-1.207 29.3-27.719 29.297 27.719zm-73.619-19.428l44.322-41.932 44.32 41.932-.932 1.207-43.388-41.052-43.391 41.052-.931-1.207zm-51.917-49.939l-36.553 34.583 3.982-5.153 2.092-2.706 30.479-28.813 30.625 28.971 1.492 1.96 2.765 3.573 61.357-58.05 59.345 56.149-.932 1.204-58.413-55.265-60.428 57.17.746.961-36.557-34.584zm-66.938 69.367l-.932 1.207-28.365-26.838-28.365 26.838-.935-1.208 29.3-27.718 29.297 27.719zm-73.619-19.428l44.322-41.932 44.322 41.934-.931 1.205-43.391-41.052-43.391 41.052-.931-1.207zm-51.916-49.939l-36.56 34.589 3.988-5.159 2.093-2.706 30.479-28.813 30.624 28.971 1.495 1.96 2.762 3.573 61.357-58.05 59.345 56.148-.932 1.205-58.413-55.265-60.425 57.168.751.972-36.564-34.593zM841.953 524.685l-73.425-69.466-73.429 69.467-.931-1.205 74.357-70.351 74.357 70.351-.929 1.204zm-162.808-20.631l89.38-84.566 89.382 84.566-.931 1.206-88.448-83.683-88.451 83.683-.932-1.206zm-29.666 20.632l-73.425-69.467-73.428 69.467-.932-1.205 74.357-70.351 74.36 70.351-.932 1.205zm15.955-20.632l-.932 1.206-88.448-83.683-88.451 83.683-.932-1.206 89.383-84.566 89.38 84.566zm-229.941-66.179l44.322-41.932 44.323 41.932-.932 1.207-43.391-41.052-43.39 41.052-.932-1.207zm58.597 38.857l-.932 1.206-13.343-12.624-13.342 12.624-.932-1.206 14.274-13.507 14.275 13.507zm-43.572-19.429l29.297-27.719 29.297 27.719-.929 1.205-28.368-26.836-28.365 26.838-.932-1.207zm-44.14-57.076l-.932-1.206 74.369-70.362 74.371 70.361-.935 1.207-73.436-69.479-73.437 69.479zm200.297 14.591l1.492 1.96 2.766 3.573 61.356-58.05 59.345 56.148-.931 1.205-58.414-55.265-60.425 57.168.751.97-36.561-34.591-36.565 34.591 6.086-7.866 30.476-28.814 30.624 28.971zm835.507-117.712l-88.459 83.693-.934-1.208 89.393-84.574 89.396 84.574-.934 1.208-88.462-83.693zm96.238 43.76l-13.331 12.61-.929-1.205 14.236-13.47.014.015.024-.024 14.25 13.479-.932 1.206-13.332-12.611zm-43.377-26.245l-.932-1.205 44.285-41.898.014.015.024-.024 44.295 41.907-.931 1.206-43.378-41.04-43.377 41.039zm43.377-7.397l-28.354 26.825-.932-1.205 29.262-27.685.014.013.024-.023 29.273 27.695-.932 1.205-28.355-26.825zm-192.46 145.921l74.343 70.336-.931 1.205-73.426-69.467-73.425 69.467-.932-1.205 74.333-70.327.014.015.024-.024zm-89.396 50.909l89.358-84.541.014.014.024-.024 89.369 84.551-.932 1.206-88.451-83.683-88.451 83.683-.931-1.206zm-28.734 19.427l-.932 1.205-73.426-69.467-73.425 69.467-.932-1.205 74.357-70.351 74.358 70.351zm-163.74-19.429l89.382-84.564 89.383 84.566-.931 1.206-88.452-83.683-88.448 83.683-.934-1.208zm-73.805 77.712l-.932 1.206-28.354-26.826-28.355 26.825-.929-1.205 29.286-27.708 29.284 27.708zm-73.595-19.428l44.309-41.922 44.309 41.922-.93 1.205-43.379-41.038-43.377 41.039-.932-1.206zm-87.608-16.505l5.189-6.712 30.492-28.824 30.633 28.982 4.26 5.534 61.343-58.039 59.334 56.136-.932 1.206-58.4-55.253-60.414 57.155.749.967-36.573-34.6-36.575 34.603.751-.97-1.672-1.582 1.815 1.397zm-31.271 35.933l-.932 1.206-28.351-26.826-28.355 26.826-.932-1.206 29.287-27.708 29.283 27.708zm-73.595-19.428l44.309-41.922 44.311 41.922-.931 1.206-43.377-41.039-43.38 41.039-.932-1.206zm-87.608-16.505l5.189-6.712 30.492-28.824 30.633 28.982 4.26 5.534 61.343-58.039 59.334 56.136-.931 1.206-58.4-55.253-60.415 57.155.749.967-36.573-34.6-36.575 34.603.751-.97-1.672-1.582 1.815 1.397zm-31.268 35.932l-.935 1.207-28.351-26.826-28.355 26.826-.932-1.206 29.287-27.708 29.286 27.707zm-73.598-19.427l44.312-41.922 44.308 41.922-.931 1.206-43.377-41.039-43.38 41.039-.932-1.206zm-87.608-16.504l5.191-6.712 30.49-28.825 30.633 28.982 4.26 5.534 61.346-58.039 59.331 56.136-.931 1.206-58.4-55.253-60.415 57.155.749.966-36.573-34.599-36.575 34.604.751-.971-1.672-1.582 1.815 1.398zm-60.483 8.292l29.215 27.64-.933 1.206-28.353-26.826-28.355 26.826-.931-1.206 29.26-27.684.072.071.025-.027zm-44.382 8.212l44.284-41.897.073.073.026-.029 44.237 41.853-.932 1.206-43.377-41.039-43.379 41.039-.932-1.206zm-221.59-37.65l-.932-1.205 74.359-70.351 74.357 70.351-.932 1.205-73.425-69.467-73.427 69.467zm200.295 14.591l4.26 5.534 61.346-58.039 59.331 56.136-.931 1.206-58.4-55.253-60.414 57.155.743.961-36.566-34.594-36.573 34.602.749-.969-1.67-1.579 1.813 1.395 5.191-6.712 30.49-28.825 30.631 28.982zm58.762-159.684l-.933 1.206-88.46-83.693-88.462 83.693-.931-1.206 89.393-84.576 89.393 84.576zm-229.94-66.177l44.31-41.922 44.309 41.922-.932 1.206-43.377-41.04-43.379 41.039-.931-1.205zm58.572 38.855l-.932 1.206-13.33-12.611-13.33 12.611-.932-1.206 14.262-13.494 14.262 13.494zm-43.548-19.427l29.286-27.709 29.286 27.708-.933 1.207-28.353-26.826-28.354 26.825-.932-1.205zm148.333-57.078l-.932-1.205 74.358-70.351 74.358 70.351-.932 1.205-73.425-69.467-73.427 69.467zm204.555 20.126l61.346-58.04 59.331 56.138-.931 1.204-58.4-55.253-60.415 57.155.749.967-36.573-34.599-36.575 34.603.751-.971-1.675-1.583 1.818 1.399 5.191-6.712 30.49-28.825 30.633 28.982 4.26 5.535zm-63.258-86.303l-.932-1.206 29.297-27.719 29.297 27.719-.929 1.205-28.368-26.836-28.365 26.837zm28.365 6.805l-13.342 12.623-.932-1.205 14.274-13.507 14.275 13.507-.932 1.205-13.343-12.623zm227.367 79.498l61.343-58.04 59.334 56.138-.931 1.204-58.4-55.253-60.415 57.155.749.967-36.573-34.599-36.575 34.603.751-.971-1.675-1.585 1.818 1.4 5.189-6.712 30.492-28.824 30.633 28.982 4.26 5.535zm-63.258-86.303l-.932-1.206 29.297-27.719 29.297 27.719-.931 1.206-28.366-26.837-28.365 26.837zm28.365 6.805l-13.342 12.623-.932-1.205 14.274-13.507 14.274 13.507-.931 1.205-13.343-12.623zm227.367 79.498l61.343-58.04 59.334 56.138-.932 1.204-58.4-55.253-60.414 57.155.749.967-36.573-34.599-36.575 34.603.751-.971-1.675-1.585 1.818 1.4 5.189-6.712 30.492-28.824 30.633 28.982 4.26 5.535zm-63.258-86.303l-.932-1.206 29.297-27.719 29.297 27.719-.932 1.206-28.365-26.837-28.365 26.837zm28.365 6.805l-13.342 12.623-.932-1.205 14.274-13.507 14.274 13.507-.931 1.205-13.343-12.623zm164.109-6.805l-.935-1.207 29.3-27.718 29.297 27.719-.932 1.206-28.365-26.837-28.365 26.837zm28.365 6.805l-13.343 12.623-.931-1.205 14.274-13.507 14.274 13.507-.932 1.205-13.342-12.623zm22.81 59.372l-.932-1.205 74.357-70.351 74.358 70.351-.932 1.205-73.426-69.467-73.425 69.467zm141.296-66.177l-.932-1.206 29.3-27.719 29.297 27.719-.932 1.206-28.365-26.837-28.368 26.837zm28.368 6.805l-13.343 12.623-.931-1.205 14.274-13.507 14.271 13.507-.929 1.204-13.342-12.622zm22.81 59.372l-.932-1.205 74.333-70.327.014.015.024-.024 74.343 70.336-.931 1.205-73.426-69.467-73.425 69.467zm141.296-66.177l-.932-1.206 29.297-27.719 29.3 27.719-.932 1.206-28.368-26.837-28.365 26.837zm28.365 6.805l-13.343 12.622-.929-1.204 14.272-13.507 14.274 13.507-.931 1.205-13.343-12.623zm22.81 59.371l-.929-1.204 74.333-70.327.014.015.024-.024 74.344 70.336-.932 1.205-73.426-69.467-73.428 69.466zm73.428-35.824l-60.414 57.155.749.967-36.573-34.599-36.567 34.595.746-.963-60.415-57.155-60.414 57.155.741.958-36.562-34.59-36.576 34.605.752-.973-60.415-57.155-60.411 57.155.749.967-36.573-34.599-36.575 34.605.751-.973-1.678-1.586 1.82 1.401 5.19-6.712 30.492-28.824 30.632 28.982 4.258 5.535 61.345-58.04 61.347 58.04 4.399-5.693 30.493-28.824 30.632 28.982 4.258 5.535 61.321-58.016.014.015.024-.024 61.332 58.025 4.4-5.693 30.49-28.824 30.635 28.982 4.257 5.535 61.322-58.016.014.015.024-.024 59.318 56.123-.929 1.203-58.403-55.252zm96.236 57.165l-88.462 83.693-.931-1.206 89.393-84.576 89.393 84.576-.931 1.206-88.462-83.693zm96.238 43.76l-13.331 12.611-.932-1.206 14.239-13.47.014.015.024-.024 14.247 13.479-.932 1.206-13.329-12.611zm-43.377-26.245l-.934-1.206 44.287-41.897.014.016.026-.024 44.293 41.906-.932 1.206-43.377-41.04-43.377 41.039zm43.377-7.397l-28.354 26.825-.932-1.205 29.262-27.685.014.013.024-.023 29.272 27.694-.934 1.206-28.352-26.825zm0 282.562l-13.331 12.611-.932-1.204 14.239-13.472.014.015.024-.024 14.247 13.479-.932 1.206-13.329-12.611zm-43.377-26.244l-.934-1.207 44.228-41.841.073.085.086-.094 44.233 41.851-.932 1.206-43.377-41.039-43.377 41.039zm43.377-7.398l-28.354 26.826-.932-1.206 29.203-27.629.073.082.083-.092 29.213 27.638-.931 1.206-28.355-26.825zm-21.868 91.797l-.931 1.206-73.439-69.479-73.436 69.479-.932-1.206 74.368-70.362 74.37 70.362zm-163.763-19.428l89.393-84.576 89.393 84.576-.931 1.206-88.462-83.693-88.462 83.693-.931-1.206zm-28.71 19.428l-.932 1.206-73.439-69.479-73.436 69.479-.932-1.206 74.368-70.362 74.371 70.362zm-163.764-19.429l89.393-84.575 89.396 84.575-.934 1.207-88.462-83.693-88.459 83.693-.934-1.207zm-28.71 19.429l-.932 1.206-73.436-69.479-73.439 69.479-.932-1.206 74.371-70.362 74.368 70.362zm-163.761-19.428l89.393-84.576 89.393 84.575-.934 1.207-88.459-83.693-88.462 83.693-.931-1.206zm-28.713 19.428l-.932 1.206-73.436-69.479-73.439 69.479-.932-1.206 74.371-70.362 74.368 70.362zm-163.762-19.428l89.394-84.576 89.393 84.576-.931 1.206-88.462-83.693-88.462 83.693-.932-1.206zm-28.709 19.427l-.935 1.207-73.436-69.479-73.439 69.479-.931-1.206 74.37-70.362 74.371 70.361zM775.37 628.513l89.393-84.576 89.394 84.576-.932 1.206-88.462-83.693-88.462 83.693-.931-1.206zm-28.71 19.427l-.934 1.207-73.437-69.479-73.436 69.479-.932-1.206 74.368-70.362 74.371 70.361zm-163.764-19.427l89.393-84.576 89.394 84.576-.932 1.206-88.462-83.693-88.461 83.693-.932-1.206zm-28.71 19.427l-.935 1.207-73.436-69.479-73.437 69.479-.932-1.206 74.369-70.362 74.371 70.361zm-163.764-19.427l89.393-84.576 89.394 84.576-.932 1.206-88.462-83.693-88.46 83.693-.933-1.206zm-28.71 19.428l-.933 1.206-73.436-69.479-73.438 69.479-.931-1.206 74.369-70.362 74.369 70.362zM197.95 628.513l89.393-84.576 89.393 84.576-.933 1.206-88.46-83.693-88.462 83.693-.931-1.206zm-28.712 19.428l-.931 1.206-73.438-69.479-73.438 69.479-.931-1.206 74.369-70.362 74.369 70.362zM5.476 628.513l89.393-84.576 89.393 84.576-.933 1.206-88.46-83.693-88.462 83.693-.931-1.206zm1725.418-455.856l-88.451 83.682-.931-1.205 89.358-84.542.014.016.026-.024 89.364 84.55-.929 1.204-88.451-83.681zm96.236 43.737l-13.343 12.623-.931-1.205 14.274-13.507 14.274 13.507-.932 1.205-13.342-12.623zm0-33.642l-28.365 26.837-.932-1.206 29.297-27.719 29.297 27.719-.929 1.205-28.368-26.836zm0-33.642l-43.391 41.051-.932-1.206 44.323-41.933 44.322 41.933-.931 1.206-43.391-41.051zm0-33.641l-60.425 57.168.754.973-36.565-34.595-36.57 34.6 2.588-3.344 3.503-4.53 30.455-28.79.014.014.024-.024 30.608 28.957 4.257 5.534 61.357-58.051 59.345 56.148-.932 1.205-58.413-55.265zm0-33.641l-73.437 69.479-.931-1.206 74.368-70.362 74.37 70.362-.931 1.206-73.439-69.479zm89.393 48.845l-.931 1.206-88.462-83.693-88.462 83.693-.932-1.206 89.394-84.576 89.393 84.576zm-185.639-74.297l.083-.091 29.213 27.637-.931 1.207-28.355-26.825-28.354 26.826-.932-1.206 29.203-27.63.073.082zm-.014 33.505l.014.015.024-.024 14.247 13.479-.932 1.206-13.329-12.611-13.331 12.611-.932-1.205 14.239-13.471zm-21.844 60.22l-.931 1.206-73.439-69.479-73.436 69.479-.932-1.206 74.368-70.362 74.37 70.362zm15.023-19.428l-.931 1.206-88.462-83.693-88.462 83.693-.931-1.206 89.393-84.576 89.393 84.576zM1538.41 56.376l.083-.091 29.214 27.639-.932 1.206-28.355-26.826-28.354 26.826-.932-1.206 29.203-27.63.073.082zm-.014 33.505l.014.015.024-.024 14.25 13.479-.932 1.206-13.332-12.611-13.331 12.609-.929-1.203 14.236-13.471zm-21.843 60.22l-.932 1.206-73.439-69.479-73.436 69.479-.932-1.206 74.368-70.362 74.371 70.362zm15.025-19.43l-.934 1.208-88.462-83.693-88.459 83.693-.934-1.208 89.393-84.574 89.396 84.574zm-185.642-74.295l.083-.091 29.214 27.639-.932 1.206-28.355-26.826-28.354 26.826-.932-1.206 29.203-27.63.073.082zm-.016 33.507l.016.014.024-.025 14.25 13.479-.932 1.206-13.332-12.611-13.329 12.611-.931-1.205 14.234-13.469zm-21.841 60.218l-.932 1.206-73.436-69.479-73.439 69.479-.932-1.206 74.371-70.362 74.368 70.362zm15.025-19.43l-.934 1.208-88.459-83.693-88.462 83.693-.931-1.206 89.393-84.576 89.393 84.574zm-156.345-46.747l-.932 1.206-28.355-26.826-28.354 26.826-.932-1.206 29.286-27.709 29.287 27.709zm-29.284 5.933l14.261 13.494-.932 1.206-13.332-12.611-13.328 12.611-.932-1.205 14.263-13.495zm-21.87 60.244l-.932 1.206-73.436-69.479-73.439 69.479-.932-1.206 74.371-70.362 74.368 70.362zm15.025-19.428l-.931 1.206-88.462-83.693-88.462 83.693-.932-1.206 89.394-84.576 89.393 84.576zM990.285 83.924l-.932 1.206-28.354-26.826-28.355 26.825-.929-1.205 29.286-27.709 29.284 27.709zm-29.284 5.933l14.261 13.494-.932 1.206-13.331-12.611-13.329 12.611-.932-1.205 14.263-13.495zm-21.867 60.242l-.935 1.208-73.436-69.479-73.439 69.479-.931-1.206 74.37-70.362 74.371 70.36zm15.023-19.426l-.932 1.206-88.462-83.693-88.462 83.693-.931-1.206 89.393-84.576 89.394 84.576zM797.811 83.924l-.932 1.206-28.351-26.826-28.355 26.826-.932-1.206 29.287-27.709 29.283 27.709zm-29.283 5.933l14.26 13.494-.931 1.206-13.329-12.611-13.332 12.611-.932-1.205 14.264-13.495zm-21.868 60.242l-.934 1.208-73.437-69.479-73.436 69.479-.932-1.206 74.368-70.362 74.371 70.36zm15.023-19.426l-.932 1.206-88.462-83.693-88.461 83.693-.932-1.206 89.393-84.576 89.394 84.576zM605.34 83.922l-.935 1.208-28.351-26.826-28.355 26.826-.932-1.206 29.287-27.709 29.286 27.707zm-29.286 5.935l14.261 13.494-.932 1.206-13.329-12.611-13.332 12.611-.932-1.205 14.264-13.495zm-21.868 60.242l-.935 1.208-73.436-69.479-73.437 69.479-.932-1.206 74.369-70.362 74.371 70.36zm15.023-19.426l-.932 1.206-88.462-83.693-88.46 83.693-.933-1.206 89.393-84.576 89.394 84.576zM383.626 56.31l.025-.027 29.215 27.641-.933 1.206-28.353-26.826-28.355 26.826-.931-1.206 29.26-27.685.072.071zm-.046 33.547l14.262 13.494-.932 1.206-13.33-12.611-13.332 12.611-.93-1.205 14.262-13.495zm-21.868 60.244l-.933 1.206-73.436-69.479-73.438 69.479-.931-1.206 74.369-70.362 74.369 70.362zm15.024-19.428l-.933 1.206-88.46-83.693-88.462 83.693-.931-1.206 89.393-84.576 89.393 84.576zM191.037 56.31l.084-.081 29.271 27.695-.933 1.206-28.353-26.826-28.354 26.826-.932-1.206 29.203-27.63.014.016zm.069 33.547l14.262 13.494-.932 1.206-13.33-12.611-13.33 12.611-.932-1.205 14.262-13.495zm-21.868 60.244l-.931 1.206-73.438-69.479-73.438 69.479-.931-1.206 74.369-70.362 74.369 70.362zM5.476 130.673l89.393-84.576 89.393 84.576-.933 1.206-88.46-83.693-88.462 83.693-.931-1.206zm1835.928 594.979l-.932 1.206-13.342-12.624-13.343 12.624-.931-1.206 14.274-13.506 14.274 13.506z"/></svg>