<svg width="106" height="39" viewBox="0 0 106 39" fill="none" xmlns="http://www.w3.org/2000/svg">
<path fill-rule="evenodd" clip-rule="evenodd" d="M6.36073 1.44043C7.53673 1.44043 8.35153 1.96543 8.88073 2.50293L8.05473 3.42376C7.62913 3.01404 7.16293 2.7321 6.37473 2.7321C4.87393 2.7321 3.86593 3.88487 3.86593 5.76543C3.86593 7.67376 4.77033 8.82654 6.46433 8.82654C6.93053 8.82654 7.39533 8.69876 7.66833 8.45432V6.64876H6.07513V5.43487H9.01093V9.12099C8.42993 9.65849 7.43453 10.1182 6.28373 10.1182C4.03253 10.1182 2.32593 8.58349 2.32593 5.80571C2.32593 3.06543 4.08433 1.44043 6.35793 1.44043M14.5731 6.26404C14.5731 5.26682 14.1489 4.66682 13.2823 4.66682C12.5319 4.66682 11.8851 5.21543 11.7563 6.26404H14.5731ZM13.2431 3.52793C14.9623 3.52793 15.8681 4.75432 15.8681 6.5071C15.8681 6.79043 15.8401 7.0446 15.8037 7.19876H11.7689C11.8949 8.33765 12.6229 8.97932 13.6449 8.97932C14.1853 8.97932 14.6501 8.81265 15.1149 8.51821L15.6189 9.43904C15.0127 9.83487 14.2511 10.1168 13.4489 10.1168C11.6891 10.1168 10.3199 8.90154 10.3199 6.82793C10.3213 4.77793 11.7563 3.52793 13.2431 3.52793ZM17.3171 4.8446H16.4141V3.7446L17.3969 3.68071L17.5789 1.96404H18.8193V3.68071H20.4349V4.8446H18.8193V7.83904C18.8193 8.58071 19.1021 8.93904 19.7111 8.93904C19.9309 8.93904 20.1899 8.87515 20.3691 8.80015L20.6295 9.88626C20.2795 10.0015 19.8399 10.1168 19.3359 10.1168C17.8617 10.1168 17.3199 9.1946 17.3199 7.83904V4.8446H17.3171Z" fill="#E7E7E7"/>
<mask id="mask0_19_86" style="mask-type:luminance" maskUnits="userSpaceOnUse" x="0" y="0" width="106" height="39">
<path d="M0.503174 0.902832H105.422V38.1251H0.503174V0.902832Z" fill="#E7E7E7"/>
</mask>
<g mask="url(#mask0_19_86)">
<path fill-rule="evenodd" clip-rule="evenodd" d="M24.4208 3.68061H25.9076V9.96394H24.4208V3.68061ZM24.2528 1.74728C24.2528 1.24728 24.6406 0.902832 25.1698 0.902832C25.7018 0.902832 26.0868 1.25005 26.0868 1.74728C26.0868 2.23339 25.7004 2.58061 25.1684 2.58061C24.6364 2.58061 24.25 2.23339 24.25 1.74728H24.2528ZM28.03 4.8445H27.1242V3.7445L28.1084 3.68061L28.2904 1.96394H29.5308V3.68061H31.1464V4.8445H29.5308V7.83894C29.5308 8.58061 29.8136 8.93894 30.4226 8.93894C30.6438 8.93894 30.9014 8.87505 31.0834 8.80005L31.3424 9.88616C30.9924 10.0014 30.5528 10.1167 30.0488 10.1167C28.5746 10.1167 28.0328 9.1945 28.0328 7.83894V4.8445H28.03ZM37.7292 8.91394C38.6616 8.91394 39.23 8.08061 39.23 6.82783C39.23 5.56116 38.6616 4.73061 37.7292 4.73061C36.7982 4.73061 36.2452 5.56116 36.2452 6.82783C36.2452 8.082 36.7982 8.91394 37.7292 8.91394ZM37.7292 3.52505C39.3196 3.52505 40.756 4.72922 40.756 6.82783C40.756 8.91394 39.3196 10.1195 37.7292 10.1195C36.1514 10.1195 34.7192 8.91394 34.7192 6.82783C34.7192 4.73061 36.1514 3.52644 37.7292 3.52644M42.233 3.68061H43.4608L43.5644 4.52505H43.6148C44.1846 3.97505 44.8328 3.52505 45.698 3.52505C47.056 3.52505 47.6496 4.43478 47.6496 6.02228V9.96394H46.1628V6.21394C46.1628 5.17644 45.8688 4.7945 45.1688 4.7945C44.6116 4.7945 44.2504 5.06117 43.7184 5.57228V9.96394H42.2344V3.68061H42.233Z" fill="#E7E7E7"/>
</g>
<mask id="mask1_19_86" style="mask-type:luminance" maskUnits="userSpaceOnUse" x="0" y="0" width="106" height="39">
<path d="M0.503174 0.902832H105.422V38.1251H0.503174V0.902832Z" fill="white"/>
</mask>
<g mask="url(#mask1_19_86)">
<path fill-rule="evenodd" clip-rule="evenodd" d="M76.498 22.7529C75.4424 22.7529 74.678 23.0445 74.2062 23.6237C73.7344 24.2015 73.4922 25.1237 73.4782 26.3876V26.7348C73.4782 28.1709 73.7204 29.1987 74.2062 29.8209C74.6892 30.4404 75.4662 30.7515 76.5372 30.7515C77.4304 30.7515 78.1332 30.3904 78.6372 29.6751C79.1454 28.9612 79.3974 27.9723 79.3974 26.714C79.3974 25.439 79.1454 24.4584 78.6358 23.7765C78.1318 23.0932 77.4178 22.7515 76.4966 22.7515M76.7248 32.0473C76.05 32.0473 75.4368 31.9251 74.8796 31.6793C74.3197 31.4311 73.8364 31.0394 73.4796 30.5445H73.3634C73.4404 31.1418 73.4782 31.7084 73.4782 32.2432V36.457H71.913V21.6251H73.187L73.4026 23.0251H73.4782C73.8814 22.464 74.349 22.0626 74.8866 21.8112C75.4643 21.5544 76.0919 21.4273 76.7248 21.439C78.0968 21.439 79.1552 21.9015 79.9028 22.8279C80.6448 23.7557 81.0172 25.0598 81.0172 26.7348C81.0172 28.4154 80.6392 29.7209 79.8832 30.6515C79.123 31.582 78.0716 32.0473 76.7248 32.0473ZM84.646 31.8612H83.078V17.3279H84.646V31.8612ZM90.1144 30.7695C91.0902 30.7695 91.8574 30.5057 92.4104 29.9779C92.9676 29.4459 93.2462 28.7043 93.2462 27.7515V26.8307L91.6782 26.8945C90.4322 26.939 89.5362 27.1307 88.9874 27.4695C88.4358 27.8084 88.1614 28.339 88.1614 29.0529C88.1614 29.6126 88.3294 30.039 88.6752 30.3307C89.0182 30.6251 89.497 30.7695 90.1144 30.7695ZM93.6508 31.8626L93.3428 30.407H93.2658C92.7478 31.0501 92.234 31.4834 91.7202 31.7084C91.2092 31.9348 90.568 32.0487 89.8022 32.0487C88.776 32.0487 87.9724 31.7876 87.39 31.2654C86.8076 30.7432 86.5164 30.0015 86.5164 29.0334C86.5164 26.9668 88.1852 25.8807 91.5284 25.7834L93.2826 25.7279V25.089C93.2826 24.289 93.1076 23.6945 92.7576 23.3112C92.4076 22.9293 91.8476 22.7376 91.0818 22.7376C90.2208 22.7376 89.2478 23.0015 88.16 23.5223L87.677 22.3348C88.1866 22.0626 88.7452 21.8487 89.3514 21.6904C89.9486 21.5367 90.5629 21.4587 91.1798 21.4584C92.4118 21.4584 93.3246 21.7279 93.9196 22.2709C94.5132 22.8126 94.8114 23.6793 94.8114 24.8751V31.8612H93.6494L93.6508 31.8626ZM95.7228 21.6251H97.4028L99.668 27.464C100.162 28.7973 100.473 29.7584 100.592 30.3501H100.666C100.75 30.0307 100.918 29.489 101.184 28.7182C101.443 27.9501 102.296 25.5834 103.742 21.6237H105.422L100.98 33.2807C100.537 34.4334 100.024 35.2501 99.4342 35.7334C98.8462 36.2168 98.1238 36.4557 97.2698 36.4557C96.791 36.4557 96.3178 36.4001 95.853 36.2959V35.0529C96.1988 35.1307 96.5866 35.1668 97.015 35.1668C98.0888 35.1668 98.856 34.5668 99.3152 33.3751L99.8948 31.9168L95.7228 21.6209V21.6251ZM46.7984 28.014C47.2968 27.5195 47.3402 26.839 47.3402 26.4515C47.3402 24.9098 46.4092 22.5112 44.6144 22.5112C44.0516 22.5112 43.4454 22.7918 43.0996 23.2195C42.7314 23.6682 42.6236 24.2473 42.6236 24.8029C42.6236 26.2376 43.4692 28.6168 45.3284 28.6168C45.8768 28.6036 46.4007 28.3888 46.7984 28.014ZM46.1726 32.0834C46.0004 32.0612 45.8926 32.0612 45.677 32.0612C45.481 32.0612 44.312 32.1029 43.4048 32.4084C42.9288 32.5751 41.5428 33.0918 41.5428 34.6098C41.5428 36.1279 43.038 37.2209 45.3508 37.2209C47.4284 37.2209 48.5316 36.2376 48.5316 34.9098C48.5316 33.8154 47.8176 33.239 46.174 32.0834H46.1726ZM47.7084 22.5765C48.2082 22.982 49.2442 23.8404 49.2442 25.4654C49.2442 27.0515 48.3342 27.8015 47.4284 28.507C47.1484 28.782 46.8208 29.0876 46.8208 29.5584C46.8208 30.0279 47.147 30.2848 47.385 30.4779L48.1648 31.0751C49.1168 31.8709 49.9806 32.5973 49.9806 34.0751C49.9806 36.089 48.0094 38.1237 44.291 38.1237C41.155 38.1237 39.643 36.6432 39.643 35.0598C39.643 34.2876 40.028 33.1987 41.309 32.4459C42.6474 31.632 44.466 31.5265 45.439 31.4598C45.1338 31.0765 44.7894 30.6682 44.7894 30.0084C44.7894 29.6404 44.8972 29.4251 45.005 29.1682C44.767 29.1904 44.529 29.2098 44.312 29.2098C42.0216 29.2098 40.7238 27.5182 40.7238 25.8487C40.7238 24.8654 41.1774 23.7723 42.107 22.9807C43.339 21.9751 44.809 21.8029 45.9808 21.8029H50.437L49.051 22.5737H47.7098L47.7084 22.5765ZM36.7884 30.0098C37.3064 29.3265 37.4366 28.4682 37.4366 27.6348C37.4366 25.7543 36.5336 22.1626 33.8526 22.1626C33.1414 22.1626 32.4288 22.4404 31.9108 22.8904C31.0708 23.6404 30.9168 24.5807 30.9168 25.5015C30.9168 27.6168 31.9752 31.1015 34.589 31.1015C35.429 31.1015 36.297 30.6945 36.7898 30.0112M34.092 31.7445C30.6592 31.7445 28.8238 29.0918 28.8238 26.6959C28.8238 23.8973 31.1338 21.5015 34.4168 21.5015C37.5906 21.5015 39.5786 23.9598 39.5786 26.5487C39.5786 29.0709 37.613 31.7432 34.0906 31.7432M25.0844 30.0098C25.6024 29.3265 25.7312 28.4682 25.7312 27.6348C25.7312 25.7543 24.824 22.1626 22.1472 22.1626C21.4332 22.1626 20.7192 22.4404 20.204 22.8904C19.3584 23.6404 19.21 24.5807 19.21 25.5015C19.21 27.6168 20.267 31.1015 22.8808 31.1015C23.7236 31.1015 24.586 30.6945 25.0844 30.0112M22.3852 31.7445C18.9496 31.7445 17.1128 29.0918 17.1128 26.6959C17.1128 23.8973 19.4256 21.5015 22.7086 21.5015C25.8838 21.5015 27.8704 23.9598 27.8704 26.5487C27.8704 29.0709 25.9062 31.7432 22.3866 31.7432M15.4622 31.407L12.3598 32.1154C11.0956 32.3098 9.96583 32.4793 8.77583 32.4793C2.78383 32.4793 0.501831 28.1182 0.501831 24.7015C0.501831 20.5307 3.73583 16.6626 9.27423 16.6626C10.3965 16.6646 11.5134 16.8159 12.595 17.1126C14.2246 17.5654 14.9848 18.1237 15.4608 18.4459L13.659 20.1432L12.9002 20.3154L13.4434 19.4543C12.7042 18.7459 11.3574 17.4348 8.79543 17.4348C5.36543 17.4348 2.78243 20.0182 2.78243 23.7779C2.78243 27.8168 5.73223 31.6223 10.4656 31.6223C11.8572 31.6223 12.5726 31.3404 13.2236 31.0834V27.6251L9.94763 27.7959L11.6836 26.8682H16.2868L15.7212 27.4098C15.5672 27.5376 15.5462 27.5793 15.5042 27.7529C15.4818 27.9445 15.4594 28.5695 15.4594 28.7807V31.4057L15.4622 31.407Z" fill="white"/>
</g>
<mask id="mask2_19_86" style="mask-type:luminance" maskUnits="userSpaceOnUse" x="0" y="0" width="106" height="39">
<path d="M0.503174 0.902832H105.422V38.1251H0.503174V0.902832Z" fill="white"/>
</mask>
<g mask="url(#mask2_19_86)">
<path fill-rule="evenodd" clip-rule="evenodd" d="M54.5712 30.7874C53.8544 30.7222 53.7032 30.5958 53.7032 29.7541V17.5902L53.7172 17.4513C53.804 16.6986 54.0196 16.5708 54.6972 16.1819H51.5892L49.9596 16.9597H51.6186V30.2263C51.6186 30.6569 51.5346 30.7222 51.0334 31.3652H54.8764L55.6814 30.8972C55.3118 30.8499 54.9422 30.8305 54.5726 30.786M61.3794 24.6208C61.7896 24.4736 62.0038 24.343 62.0038 24.0472C62.0038 23.1944 61.0336 22.2111 59.8688 22.2111C59.005 22.2111 57.3908 22.8736 57.3908 25.1791C57.3908 25.5402 57.4328 25.9249 57.4566 26.3083L61.3766 24.6194L61.3794 24.6208ZM63.4094 30.9847C63.1714 31.1097 62.9334 31.2624 62.6982 31.3666C61.9842 31.6902 61.2506 31.7736 60.6024 31.7736C59.9164 31.7736 58.8356 31.7291 57.7366 30.9402C56.205 29.8736 55.5386 28.0374 55.5386 26.4361C55.5386 23.1263 58.2574 21.5055 60.4764 21.5055C61.252 21.5055 62.05 21.6999 62.6996 22.1027C63.7748 22.8069 64.0548 23.7236 64.206 24.2166L59.1408 26.2444L57.479 26.3736C58.018 29.0819 59.873 30.6624 61.9212 30.6624C63.0216 30.6624 63.8196 30.2777 64.5532 29.9166L63.4108 30.9861L63.4094 30.9847ZM65.4884 21.6527V23.061H65.3148V21.6527H64.8444V21.5069H65.9602V21.6527H65.4884ZM67.4274 23.061V21.6388H67.4232L66.9822 23.061H66.8464L66.404 21.6402H66.3998V23.0624H66.2402V21.5069H66.5104L66.9108 22.7652H66.9136L67.3084 21.5083H67.58V23.0638H67.426L67.4274 23.061Z" fill="white"/>
</g>
</svg>
