<svg height="50" width="50" xmlns="http://www.w3.org/2000/svg" viewBox="0 0 213.134 213.134"><path d="M90.063 107.15c6.079.627 12.019-1.272 16.505-5.133 3.923 3.377 8.908 5.251 14.209 5.251.76 0 1.532-.04 2.294-.118 10.153-1.042 18.335-9.157 19.453-19.293.78-7.068-1.905-14.098-7.183-18.806-6.714-5.991-10.564-14.245-10.564-22.646V4a4 4 0 00-4-4H92.358a4 4 0 00-4 4v42.405c0 8.4-3.851 16.655-10.565 22.646-5.276 4.708-7.962 11.738-7.183 18.807 1.119 10.135 9.299 18.249 19.453 19.292zm56.028 8.82l-.01-.09c-.421-3.683-3.565-6.46-7.313-6.46a7.396 7.396 0 00-5.243 2.169c-2.578 2.56-5.943 4.17-9.475 4.533-3.685.377-7.33-.506-10.376-2.515a12.868 12.868 0 00-7.106-2.123c-2.543 0-5 .734-7.105 2.123-3.047 2.008-6.699 2.894-10.377 2.515-3.532-.363-6.897-1.973-9.475-4.533a7.402 7.402 0 00-5.244-2.169 7.347 7.347 0 00-7.323 6.551c-.859 7.787 2.123 15.504 7.977 20.646 7.469 6.561 11.753 15.628 11.753 24.879v47.639a4 4 0 004 4h31.589a4 4 0 004-4v-47.639c0-9.25 4.284-18.318 11.753-24.879 5.853-5.143 8.835-12.861 7.975-20.647z"/></svg>